<?xml version="1.0" encoding="UTF-8"?>
<svg width="800" height="400" viewBox="0 0 800 400" xmlns="http://www.w3.org/2000/svg">
    <!-- Sky -->
    <rect width="800" height="400" fill="#87CEEB"/>
    
    <!-- Sun -->
    <circle cx="700" cy="100" r="50" fill="#FFD700"/>
    
    <!-- Mountains -->
    <path d="M0,300 L200,100 L400,300 L600,150 L800,300 L800,400 L0,400 Z" fill="#4A5568"/>
    
    <!-- Village Houses -->
    <g transform="translate(100,250)">
        <!-- House 1 -->
        <rect x="0" y="0" width="80" height="60" fill="#E53E3E"/>
        <polygon points="0,0 40,-30 80,0" fill="#C53030"/>
        <rect x="30" y="30" width="20" height="30" fill="#2D3748"/>
        
        <!-- House 2 -->
        <rect x="100" y="0" width="80" height="60" fill="#3182CE"/>
        <polygon points="100,0 140,-30 180,0" fill="#2C5282"/>
        <rect x="130" y="30" width="20" height="30" fill="#2D3748"/>
        
        <!-- House 3 -->
        <rect x="200" y="0" width="80" height="60" fill="#38A169"/>
        <polygon points="200,0 240,-30 280,0" fill="#276749"/>
        <rect x="230" y="30" width="20" height="30" fill="#2D3748"/>
    </g>
    
    <!-- Trees -->
    <g transform="translate(50,280)">
        <!-- Tree 1 -->
        <rect x="0" y="0" width="10" height="30" fill="#744210"/>
        <circle cx="5" cy="-10" r="20" fill="#48BB78"/>
        
        <!-- Tree 2 -->
        <rect x="400" y="0" width="10" height="30" fill="#744210"/>
        <circle cx="405" cy="-10" r="20" fill="#48BB78"/>
        
        <!-- Tree 3 -->
        <rect x="600" y="0" width="10" height="30" fill="#744210"/>
        <circle cx="605" cy="-10" r="20" fill="#48BB78"/>
    </g>
    
    <!-- Ground -->
    <rect width="800" height="100" y="300" fill="#48BB78"/>
</svg> 